<svg xmlns="http://www.w3.org/2000/svg" viewBox="0 0 109.33855 67.49867">
  <defs>
    <style>
      .a {
        fill: #3658aa;
      }

      .b {
        fill: #274080;
      }

      .c {
        fill: #c3d1ff;
      }

      .d {
        fill: #4d7eff;
      }
    </style>
  </defs>
  <title>icon_codacy enterprise</title>
  <g>
    <path class="a" d="M24.08307,27.12763H1.9904a1.9904,1.9904,0,0,1,0-3.9808H24.08307a1.9904,1.9904,0,1,1,0,3.9808Z"/>
    <path class="b" d="M26.86846,44.80863H8.83435a1.9904,1.9904,0,1,1,0-3.9808H26.86846a1.9904,1.9904,0,0,1,0,3.9808Z"/>
    <path class="b" d="M102.251,27.12763H91.434a1.9904,1.9904,0,1,1,0-3.9808h10.817a1.9904,1.9904,0,1,1,0,3.9808Z"/>
    <path class="b" d="M24.08307,17.3402H13.8706a1.9904,1.9904,0,1,1,0-3.9808H24.08307a1.9904,1.9904,0,1,1,0,3.9808Z"/>
    <path class="b" d="M107.34815,44.80863H90.75888a1.9904,1.9904,0,0,1,0-3.9808h16.58927a1.9904,1.9904,0,0,1,0,3.9808Z"/>
    <path class="a" d="M87.32881,67.49479H77.11635a1.99041,1.99041,0,0,1,0-3.98081H87.32881a1.99041,1.99041,0,0,1,0,3.98081Z"/>
    <path class="c" d="M29.23107,1.99014H76.96854a4.67389,4.67389,0,0,1,4.55373,4.78543V28.03a29.29631,29.29631,0,0,1-9.40322,21.65014L56.02192,64.35075a4.38709,4.38709,0,0,1-5.89572.0637L34.50788,50.76115a29.261,29.261,0,0,1-9.83055-22.03158V6.77557A4.6739,4.6739,0,0,1,29.23107,1.99014Z"/>
    <g>
      <path class="d" d="M53.03717,67.49867a6.39622,6.39622,0,0,1-4.22053-1.58545L33.198,52.25967A31.16793,31.16793,0,0,1,22.68681,28.72928V6.77527A6.67037,6.67037,0,0,1,29.23141,0H76.96862a6.67025,6.67025,0,0,1,6.544,6.77527V28.03018A31.27522,31.27522,0,0,1,73.45951,51.15173L57.36266,65.82186A6.40713,6.40713,0,0,1,53.03717,67.49867ZM29.23141,3.9808a2.68969,2.68969,0,0,0-2.5638,2.79447v21.954a27.18851,27.18851,0,0,0,9.15052,20.53313L51.43617,62.916a2.40411,2.40411,0,0,0,3.24477-.03629L70.77843,48.20889a27.28528,27.28528,0,0,0,8.75335-20.17871V6.77527A2.6896,2.6896,0,0,0,76.96862,3.9808Z"/>
      <path class="d" d="M80.56773,22.34313H60.20937a4.46339,4.46339,0,0,1-4.55191-4.36925V4.03554a2.59165,2.59165,0,0,0-5.179,0V17.97388a4.46339,4.46339,0,0,1-4.55191,4.36925H25.56781a2.48765,2.48765,0,1,0,0,4.97113H45.92659A4.46339,4.46339,0,0,1,50.4785,31.6835V63.03538a2.59165,2.59165,0,0,0,5.179,0V31.6835a4.46339,4.46339,0,0,1,4.55191-4.36924H80.56773a2.48765,2.48765,0,1,0,0-4.97113Z"/>
    </g>
  </g>
</svg>
