<svg xmlns="http://www.w3.org/2000/svg" viewBox="0 0 81.23529 54.13117">
  <defs>
    <style>
      .a {
        fill: #c7d5ff;
      }

      .b {
        fill: #3658ae;
      }

      .c {
        fill: #274080;
      }

      .d {
        fill: #4d7eff;
      }
    </style>
  </defs>
  <title>Homepage_Hosting Cloud</title>
  <g>
    <path class="a" d="M68.04276,28.53536a14.52211,14.52211,0,0,0-27.669-4.7245,7.18185,7.18185,0,0,0-2.19443-.373,7.29985,7.29985,0,0,0-7.29829,7.29829,7.19736,7.19736,0,0,0,.399,2.27716,10.5084,10.5084,0,0,0,5.27768,19.61482v.00326H65.74945v-.00326a12.15481,12.15481,0,0,0,2.29331-24.09275Z"/>
    <g>
      <path class="b" d="M65.74945,54.13117H35.05756v-.09571a12.06071,12.06071,0,0,1-10.542-11.9497,11.87077,11.87077,0,0,1,5.03369-9.7378,7.96565,7.96565,0,0,1-.168-1.61181,8.808,8.808,0,0,1,8.79785-8.79834,7.87276,7.87276,0,0,1,1.40283.12939,16.0153,16.0153,0,0,1,29.81445,5.24463,13.65517,13.65517,0,0,1-2.147,26.73437v.082Zm-27.69189-3,27.69189-.00293a10.65495,10.65495,0,0,0,2.01172-21.11963l-1.104-.21094L66.54974,28.679a13.02223,13.02223,0,0,0-24.81494-4.2378l-.55566,1.2002-1.26026-.40137a5.65141,5.65141,0,0,0-1.73974-.30224,5.80473,5.80473,0,0,0-5.79785,5.79834,5.70209,5.70209,0,0,0,.32226,1.80468l.38428,1.15528-1.05225.61328a8.94153,8.94153,0,0,0-4.52,7.77637,9.05257,9.05257,0,0,0,9.042,9.04248Z"/>
      <path class="b" d="M10.09662,32.08136a1.49976,1.49976,0,0,1-1.5-1.5V20.17218a1.5,1.5,0,0,1,3,0V30.58136A1.49977,1.49977,0,0,1,10.09662,32.08136Z"/>
      <path class="b" d="M15.98138,32.08136a1.49977,1.49977,0,0,1-1.5-1.5V15.32843a1.5,1.5,0,0,1,3,0V30.58136A1.49976,1.49976,0,0,1,15.98138,32.08136Z"/>
      <path class="b" d="M21.89691,32.08136a1.49977,1.49977,0,0,1-1.5-1.5V24.62775a1.5,1.5,0,0,1,3,0v5.95361A1.49977,1.49977,0,0,1,21.89691,32.08136Z"/>
      <path class="b" d="M55.94824,0H5.61963A5.62563,5.62563,0,0,0,0,5.61914v31.958a5.62605,5.62605,0,0,0,5.61963,5.61963h15.605a1.5,1.5,0,0,0,0-3H5.61963A2.62277,2.62277,0,0,1,3,37.57715V9.92041H58.56738v2.09814a1.5,1.5,0,1,0,3,0V5.61914A5.62521,5.62521,0,0,0,55.94824,0ZM3,6.92041V5.61914A2.62234,2.62234,0,0,1,5.61963,3H55.94824a2.62192,2.62192,0,0,1,2.61914,2.61914V6.92041Z"/>
    </g>
    <path class="c" d="M79.73529,23.12775H72.30707a1.5,1.5,0,0,1,0-3h7.42822a1.5,1.5,0,0,1,0,3Z"/>
    <path class="c" d="M76.02093,17.83478H72.30707a1.5,1.5,0,0,1,0-3h3.71386a1.5,1.5,0,1,1,0,3Z"/>
    <path class="b" d="M21.08881,50.9422H13.66009a1.5,1.5,0,1,1,0-3h7.42872a1.5,1.5,0,0,1,0,3Z"/>
    <path class="d" d="M65.74945,54.13117H35.05756v-.09571a12.06071,12.06071,0,0,1-10.542-11.9497,11.87077,11.87077,0,0,1,5.03369-9.7378,7.96565,7.96565,0,0,1-.168-1.61181,8.808,8.808,0,0,1,8.79785-8.79834,7.87276,7.87276,0,0,1,1.40283.12939,16.0153,16.0153,0,0,1,29.81445,5.24463,13.65517,13.65517,0,0,1-2.147,26.73437v.082Zm-27.69189-3,27.69189-.00293a10.65495,10.65495,0,0,0,2.01172-21.11963l-1.104-.21094L66.54974,28.679a13.02223,13.02223,0,0,0-24.81494-4.2378l-.55566,1.2002-1.26026-.40137a5.65141,5.65141,0,0,0-1.73974-.30224,5.80473,5.80473,0,0,0-5.79785,5.79834,5.70209,5.70209,0,0,0,.32226,1.80468l.38428,1.15528-1.05225.61328a8.94153,8.94153,0,0,0-4.52,7.77637,9.05257,9.05257,0,0,0,9.042,9.04248Z"/>
  </g>
</svg>
